<svg width="24" height="24" viewBox="0 0 24 24" fill="none" xmlns="http://www.w3.org/2000/svg">
<path d="M4.75 5.25C4.33579 5.25 4 5.58579 4 6C4 6.41421 4.33579 6.75 4.75 6.75H16.25C16.6642 6.75 17 6.41421 17 6C17 5.58579 16.6642 5.25 16.25 5.25H4.75Z" fill="#0E1318"/>
<path d="M4.75 9.25C4.33579 9.25 4 9.58579 4 10C4 10.4142 4.33579 10.75 4.75 10.75H12.25C12.6642 10.75 13 10.4142 13 10C13 9.58579 12.6642 9.25 12.25 9.25H4.75Z" fill="#0E1318"/>
<path d="M4 14C4 13.5858 4.33579 13.25 4.75 13.25H8.25C8.66421 13.25 9 13.5858 9 14C9 14.4142 8.66421 14.75 8.25 14.75H4.75C4.33579 14.75 4 14.4142 4 14Z" fill="#0E1318"/>
<path d="M4.75 17.25C4.33579 17.25 4 17.5858 4 18C4 18.4142 4.33579 18.75 4.75 18.75H6.25C6.66421 18.75 7 18.4142 7 18C7 17.5858 6.66421 17.25 6.25 17.25H4.75Z" fill="#0E1318"/>
<path fill-rule="evenodd" clip-rule="evenodd" d="M21.1919 8.30806C20.3956 7.51169 19.1044 7.51169 18.308 8.30806L11.4083 15.2078C10.9507 15.6654 10.5942 16.2139 10.3619 16.8179L9.41668 19.2756C9.32801 19.5062 9.38343 19.7673 9.55808 19.9419C9.73273 20.1166 9.99385 20.172 10.2243 20.0833L12.6821 19.1381C13.2861 18.9058 13.8346 18.5493 14.2922 18.0917L21.1919 11.1919C21.9883 10.3956 21.9883 9.10442 21.1919 8.30806ZM19.1919 9.19194C19.5001 8.88373 19.9998 8.88373 20.308 9.19194C20.6163 9.50015 20.6163 9.99985 20.308 10.3081L19.75 10.8661L18.6339 9.75L19.1919 9.19194ZM17.75 10.6339L13.3839 15L14.5 16.1161L18.8661 11.75L17.75 10.6339ZM12.2922 16.0917L12.5 15.8839L13.6161 17L13.4083 17.2078C13.0744 17.5417 12.6741 17.8019 12.2333 17.9714L11.4715 18.2644L11.2356 18.0285L11.5286 17.2666C11.6981 16.8259 11.9582 16.4256 12.2922 16.0917Z" fill="#0E1318"/>
</svg>
