<svg width="24" height="24" viewBox="0 0 24 24" fill="none" xmlns="http://www.w3.org/2000/svg">
<path fill-rule="evenodd" clip-rule="evenodd" d="M2 12C2 17.5228 6.47715 22 12 22C17.5228 22 22 17.5228 22 12C22 6.47715 17.5228 2 12 2C6.47715 2 2 6.47715 2 12ZM20.5 12C20.5 16.6944 16.6944 20.5 12 20.5C7.30558 20.5 3.5 16.6944 3.5 12C3.5 7.30558 7.30558 3.5 12 3.5C16.6944 3.5 20.5 7.30558 20.5 12Z" fill="#0E1318"/>
<path d="M12 6C11.4477 6 11 6.44772 11 7V12C11 12.3221 11.1523 12.6086 11.3887 12.7915L14.7054 16.1081C15.0959 16.4987 15.7291 16.4987 16.1196 16.1081C16.5101 15.7176 16.5101 15.0844 16.1196 14.6939L13 11.5743V7C13 6.44772 12.5523 6 12 6Z" fill="#0E1318"/>
</svg>
