<svg width="32" height="32" viewBox="0 0 32 32" fill="none" xmlns="http://www.w3.org/2000/svg">
<path fill-rule="evenodd" clip-rule="evenodd" d="M9.57236 7.36328C8.156 7.36328 7.00781 8.52207 7.00781 9.95152V12.775C7.00781 14.2045 8.156 15.3633 9.57236 15.3633H12.37C13.7864 15.3633 14.9346 14.2045 14.9346 12.775V9.95152C14.9346 8.52207 13.7864 7.36328 12.37 7.36328H9.57236ZM9.57236 8.86328C8.9974 8.86328 8.50781 9.33747 8.50781 9.95152V12.775C8.50781 13.3891 8.9974 13.8633 9.57236 13.8633H12.37C12.945 13.8633 13.4346 13.3891 13.4346 12.775V9.95152C13.4346 9.33747 12.945 8.86328 12.37 8.86328H9.57236Z" fill="#0E1318" fill-opacity="0.7"/>
<path fill-rule="evenodd" clip-rule="evenodd" d="M19.5777 7.36328C18.1614 7.36328 17.0132 8.52207 17.0132 9.95152V12.775C17.0132 14.2045 18.1614 15.3633 19.5777 15.3633H22.3754C23.7918 15.3633 24.94 14.2045 24.94 12.775V9.95152C24.94 8.52207 23.7918 7.36328 22.3754 7.36328H19.5777ZM19.5777 8.86328C19.0028 8.86328 18.5132 9.33747 18.5132 9.95152V12.775C18.5132 13.3891 19.0028 13.8633 19.5777 13.8633H22.3754C22.9504 13.8633 23.44 13.3891 23.44 12.775V9.95152C23.44 9.33747 22.9504 8.86328 22.3754 8.86328H19.5777Z" fill="#0E1318" fill-opacity="0.7"/>
<path fill-rule="evenodd" clip-rule="evenodd" d="M9.57236 17.3837C8.156 17.3837 7.00781 18.5425 7.00781 19.9719V22.7954C7.00781 24.2249 8.156 25.3837 9.57236 25.3837H12.37C13.7864 25.3837 14.9346 24.2249 14.9346 22.7954V19.9719C14.9346 18.5425 13.7864 17.3837 12.37 17.3837H9.57236ZM8.50781 19.9719C8.50781 19.3579 8.9974 18.8837 9.57236 18.8837H12.37C12.945 18.8837 13.4346 19.3579 13.4346 19.9719V22.7954C13.4346 23.4095 12.945 23.8837 12.37 23.8837H9.57236C8.9974 23.8837 8.50781 23.4095 8.50781 22.7954V19.9719Z" fill="#0E1318" fill-opacity="0.7"/>
<path d="M20.9766 17.4149C21.3908 17.4149 21.7266 17.7507 21.7266 18.1649V20.6337H24.1953C24.6095 20.6337 24.9453 20.9695 24.9453 21.3837C24.9453 21.7979 24.6095 22.1337 24.1953 22.1337H21.7266V24.6024C21.7266 25.0166 21.3908 25.3524 20.9766 25.3524C20.5623 25.3524 20.2266 25.0166 20.2266 24.6024V22.1337H17.7578C17.3436 22.1337 17.0078 21.7979 17.0078 21.3837C17.0078 20.9695 17.3436 20.6337 17.7578 20.6337H20.2266V18.1649C20.2266 17.7507 20.5623 17.4149 20.9766 17.4149Z" fill="#0E1318" fill-opacity="0.7"/>
</svg>
