<svg width="32" height="32" viewBox="0 0 32 32" fill="none" xmlns="http://www.w3.org/2000/svg">
<path d="M13.0959 9.9289L14.6416 8.63186C15.4507 7.95295 16.5636 7.87411 17.4394 8.348L17.5807 8.29656C18.1496 8.08949 18.7305 7.98216 19.3042 7.96563C17.8826 6.28264 15.3664 6.06564 13.6775 7.48279L8.97468 11.4289L13.0959 9.9289Z" fill="#0E1318" fill-opacity="0.7"/>
<path fill-rule="evenodd" clip-rule="evenodd" d="M15.8354 19.4565C15.8354 17.9668 17.0431 16.7592 18.5328 16.7592C20.0225 16.7592 21.2301 17.9668 21.2301 19.4565C21.2301 20.9462 20.0225 22.1538 18.5328 22.1538C17.0431 22.1538 15.8354 20.9462 15.8354 19.4565ZM18.5328 18.0092C17.7334 18.0092 17.0854 18.6572 17.0854 19.4565C17.0854 20.2558 17.7334 20.9038 18.5328 20.9038C19.3321 20.9038 19.9801 20.2558 19.9801 19.4565C19.9801 18.6572 19.3321 18.0092 18.5328 18.0092Z" fill="#0E1318" fill-opacity="0.7"/>
<path d="M12.02 19.4567C12.02 18.6574 12.668 18.0094 13.4674 18.0094C13.7919 18.0094 14.0899 18.1155 14.331 18.2951C14.6078 18.5014 14.9993 18.4442 15.2056 18.1675C15.4119 17.8907 15.3547 17.4991 15.0779 17.2928C14.6284 16.9579 14.0702 16.7594 13.4674 16.7594C11.9777 16.7594 10.77 17.967 10.77 19.4567C10.77 20.9464 11.9777 22.1541 13.4674 22.1541C14.0628 22.1541 14.6148 21.9604 15.0615 21.6328C15.3398 21.4287 15.3999 21.0375 15.1958 20.7592C14.9916 20.4809 14.6005 20.4207 14.3221 20.6249C14.0827 20.8005 13.788 20.9041 13.4674 20.9041C12.668 20.9041 12.02 20.2561 12.02 19.4567Z" fill="#0E1318" fill-opacity="0.7"/>
<path fill-rule="evenodd" clip-rule="evenodd" d="M11 13.4565C8.79086 13.4565 7 15.2474 7 17.4565V21.4565C7 23.6657 8.79086 25.4565 11 25.4565H21C23.2091 25.4565 25 23.6657 25 21.4565V17.4565C25 15.2474 23.2091 13.4565 21 13.4565H11ZM21 14.9565H11C9.61929 14.9565 8.5 16.0758 8.5 17.4565V21.4565C8.5 22.8373 9.61929 23.9565 11 23.9565H21C22.3807 23.9565 23.5 22.8373 23.5 21.4565V17.4565C23.5 16.0758 22.3807 14.9565 21 14.9565Z" fill="#0E1318" fill-opacity="0.7"/>
<path d="M18.6073 11.1156L16.2968 11.9565H11.9111L18.0942 9.70606C20.1702 8.95049 22.4655 10.0208 23.2211 12.0968L23.3638 12.489C22.7822 12.2117 22.1443 12.0336 21.4718 11.9765C20.8302 11.1094 19.6725 10.7279 18.6073 11.1156Z" fill="#0E1318" fill-opacity="0.7"/>
</svg>
