<svg width="32" height="32" viewBox="0 0 32 32" fill="none" xmlns="http://www.w3.org/2000/svg">
<path fill-rule="evenodd" clip-rule="evenodd" d="M24.0719 7.45739C22.8475 6.23295 20.8623 6.23296 19.6378 7.45739L14.2501 12.8452C13.8219 13.2734 13.5166 13.8087 13.3661 14.3953L12.5217 17.6867C12.3165 18.4865 13.0431 19.2139 13.8432 19.0096L17.1213 18.1726C17.7098 18.0223 18.2471 17.7163 18.6766 17.2868L24.0719 11.8915C25.2964 10.667 25.2964 8.68182 24.0719 7.45739ZM21.9548 11.8873L23.0113 10.8308C23.6499 10.1921 23.6499 9.15669 23.0113 8.51805C22.3726 7.8794 21.3372 7.8794 20.6985 8.51805L19.642 9.57454L21.9548 11.8873ZM20.7879 13.0541L17.616 16.2261C17.3769 16.4652 17.0778 16.6356 16.7501 16.7192L14.148 17.3837L14.8191 14.7681C14.9028 14.4418 15.0726 14.144 15.3107 13.9058L18.4752 10.7414L20.7879 13.0541Z" fill="#0E1318" fill-opacity="0.7"/>
<path d="M9.145 19.024C8.79093 19.024 8.50391 19.3111 8.50391 19.6651C8.50391 20.0192 8.79093 20.3062 9.145 20.3062H22.8966C24.0613 20.3062 25.0055 21.2504 25.0055 22.4151C25.0055 23.5799 24.0613 24.524 22.8966 24.524H13.1952C12.781 24.524 12.4452 24.1883 12.4452 23.774C12.4452 23.3598 12.781 23.024 13.1952 23.024H22.8966C23.2329 23.024 23.5055 22.7514 23.5055 22.4151C23.5055 22.0788 23.2328 21.8062 22.8966 21.8062H9.145C7.9625 21.8062 7.00391 20.8476 7.00391 19.6651C7.00391 18.4826 7.9625 17.524 9.145 17.524H11.0077V19.024H9.145Z" fill="#0E1318" fill-opacity="0.7"/>
</svg>
