<svg width="32" height="32" viewBox="0 0 32 32" fill="none" xmlns="http://www.w3.org/2000/svg">
<path fill-rule="evenodd" clip-rule="evenodd" d="M10.5487 15.2435C10.7704 15.3623 11.0147 15.4219 11.2581 15.4219C11.5022 15.422 11.7467 15.3625 11.9689 15.2429L11.9718 15.2413L11.9754 15.2394L11.9847 15.2343L12.0114 15.2196C12.0326 15.2077 12.0608 15.1917 12.0951 15.1717C12.1637 15.1318 12.2574 15.0756 12.3701 15.0038C12.5944 14.8608 12.8997 14.6526 13.2353 14.3842C13.8732 13.8739 14.7132 13.073 15.2611 12.0096C15.5299 11.5602 15.6842 11.0338 15.6842 10.4756C15.6842 8.82357 14.345 7.48447 12.6931 7.48447C12.1727 7.48447 11.6839 7.61716 11.2582 7.85041C10.8325 7.61711 10.3436 7.48438 9.82318 7.48438C8.17127 7.48438 6.83203 8.82347 6.83203 10.4755C6.83203 10.994 6.96524 11.4856 7.2002 11.9137C7.74132 13.015 8.60286 13.8425 9.25577 14.3666C9.59767 14.641 9.90972 14.8539 10.1391 14.9999C10.2543 15.0732 10.3502 15.1307 10.4204 15.1714C10.4555 15.1918 10.4843 15.2081 10.506 15.2202L10.5332 15.2352L10.5427 15.2404L10.5464 15.2424L10.5487 15.2435ZM8.53022 11.2187C8.88106 11.9499 9.44728 12.5588 9.97316 13.0125C10.3946 13.376 10.7901 13.6398 11.0282 13.7869C11.1713 13.8754 11.258 13.9219 11.258 13.9219C11.258 13.9219 11.3443 13.8757 11.4874 13.7869C11.7252 13.6395 12.1209 13.3746 12.5416 13.0104C13.0516 12.5689 13.5994 11.9807 13.9512 11.2762C14.0988 11.0449 14.1842 10.7702 14.1842 10.4756C14.1842 9.65205 13.5166 8.98447 12.6931 8.98447C12.6032 8.98447 12.5151 8.99243 12.4295 9.00768C11.8659 9.1082 11.4119 9.52537 11.2581 10.0686C11.1044 9.52535 10.6504 9.10816 10.0868 9.00761C10.0012 8.99234 9.91314 8.98438 9.82318 8.98438C8.99964 8.98438 8.33203 9.65196 8.33203 10.4755C8.33203 10.7461 8.40415 10.9999 8.53022 11.2187Z" fill="#0E1318" fill-opacity="0.7"/>
<path fill-rule="evenodd" clip-rule="evenodd" d="M21.5359 8.01277C21.1402 7.33149 20.1563 7.33149 19.7606 8.01277L16.4538 13.7069C16.0563 14.3912 16.5501 15.2488 17.3414 15.2488H23.9551C24.7464 15.2488 25.2401 14.3912 24.8427 13.7069L21.5359 8.01277ZM20.6482 9.4712L18.164 13.7488H23.1325L20.6482 9.4712Z" fill="#0E1318" fill-opacity="0.7"/>
<path fill-rule="evenodd" clip-rule="evenodd" d="M24.8609 21.1696C24.8609 23.4961 22.9748 25.3821 20.6482 25.3821C18.3216 25.3821 16.4355 23.4961 16.4355 21.1696C16.4355 18.8431 18.3216 16.9571 20.6482 16.9571C22.9748 16.9571 24.8609 18.8431 24.8609 21.1696ZM23.3609 21.1696C23.3609 22.6676 22.1465 23.8821 20.6482 23.8821C19.15 23.8821 17.9355 22.6676 17.9355 21.1696C17.9355 19.6716 19.15 18.4571 20.6482 18.4571C22.1465 18.4571 23.3609 19.6716 23.3609 21.1696Z" fill="#0E1318" fill-opacity="0.7"/>
<path fill-rule="evenodd" clip-rule="evenodd" d="M7.40579 18.0876C7.40579 17.6624 7.75046 17.3178 8.17563 17.3178H14.3161C14.7413 17.3178 15.0859 17.6624 15.0859 18.0876V24.3817C15.0859 24.7219 14.8102 24.9976 14.4701 24.9976H8.17563C7.75046 24.9976 7.40579 24.6529 7.40579 24.2278V18.0876ZM8.90579 23.4976V18.8178H13.5859V23.4976H8.90579Z" fill="#0E1318" fill-opacity="0.7"/>
</svg>
