<svg width="32" height="32" viewBox="0 0 32 32" fill="none" xmlns="http://www.w3.org/2000/svg">
<path fill-rule="evenodd" clip-rule="evenodd" d="M7 15.325C7 11.7347 7 9.93954 7.96607 8.71408C8.18513 8.4362 8.4362 8.18513 8.71408 7.96607C9.93954 7 11.7347 7 15.325 7H16.675C20.2653 7 22.0605 7 23.2859 7.96607C23.5638 8.18513 23.8149 8.4362 24.0339 8.71408C25 9.93954 25 11.7347 25 15.325V16.675C25 20.2653 25 22.0605 24.0339 23.2859C23.8149 23.5638 23.5638 23.8149 23.2859 24.0339C22.0605 25 20.2653 25 16.675 25H15.325C11.7347 25 9.93954 25 8.71408 24.0339C8.4362 23.8149 8.18513 23.5638 7.96607 23.2859C7 22.0605 7 20.2653 7 16.675V15.325ZM15.325 8.5H16.675C16.9642 8.5 17.2389 8.50006 17.5 8.50058L17.5 23.4994C17.2389 23.4999 16.9642 23.5 16.675 23.5H15.325C13.4942 23.5 12.2492 23.4977 11.304 23.389C10.3901 23.284 9.94791 23.0965 9.64272 22.856C9.45747 22.7099 9.29009 22.5425 9.14405 22.3573C8.90346 22.0521 8.71598 21.6099 8.61095 20.696C8.50232 19.7508 8.5 18.5058 8.5 16.675V15.325C8.5 13.4942 8.50232 12.2492 8.61095 11.304C8.71598 10.3901 8.90346 9.94791 9.14405 9.64272C9.29009 9.45747 9.45747 9.29009 9.64272 9.14405C9.94791 8.90346 10.3901 8.71598 11.304 8.61095C12.2492 8.50232 13.4942 8.5 15.325 8.5ZM19 23.4856C19.6661 23.4716 20.2192 23.4438 20.696 23.389C21.6099 23.284 22.0521 23.0965 22.3573 22.856C22.5425 22.7099 22.7099 22.5425 22.856 22.3573C23.0965 22.0521 23.284 21.6099 23.389 20.696C23.4977 19.7508 23.5 18.5058 23.5 16.675V15.325C23.5 15.2209 23.5 15.1187 23.5 15.0184H19L19 23.4856ZM23.4938 13.5184C23.4837 12.6137 23.4575 11.8994 23.389 11.304C23.284 10.3901 23.0965 9.94791 22.856 9.64272C22.7099 9.45747 22.5425 9.29009 22.3573 9.14405C22.0521 8.90346 21.6099 8.71598 20.696 8.61095C20.2192 8.55615 19.6661 8.52841 19 8.51436V13.5184H23.4938Z" fill="#0E1318" fill-opacity="0.7"/>
</svg>
