<svg width="32" height="32" viewBox="0 0 32 32" fill="none" xmlns="http://www.w3.org/2000/svg">
<path fill-rule="evenodd" clip-rule="evenodd" d="M14.8431 6.94141L11.0288 6.94142C8.82229 6.94143 7.03254 8.72813 7.02878 10.9346L7.01172 20.9346C7.00795 23.1464 8.79992 24.9414 11.0117 24.9414L21.0049 24.9414C23.214 24.9414 25.0049 23.1505 25.0049 20.9414V12.7106C25.0049 11.0538 23.6618 9.71065 22.0049 9.71064L18.3908 9.71063C18.2014 9.71063 18.0283 9.60363 17.9436 9.43423L17.5264 8.59976C17.0182 7.58341 15.9794 6.9414 14.8431 6.94141ZM11.0288 8.44142L14.8431 8.44141C15.4113 8.4414 15.9307 8.76241 16.1847 9.27058L16.602 10.1051C16.9408 10.7826 17.6333 11.2106 18.3908 11.2106L22.0049 11.2106C22.8333 11.2106 23.5049 11.8822 23.5049 12.7106V13.4457H8.5245L8.52877 10.9372C8.53113 9.55812 9.64972 8.44143 11.0288 8.44142ZM8.52194 14.9457L8.51172 20.9371C8.50937 22.3195 9.62934 23.4414 11.0117 23.4414L21.0049 23.4414C22.3856 23.4414 23.5049 22.3221 23.5049 20.9414V14.9457H8.52194Z" fill="#0E1318" fill-opacity="0.7"/>
</svg>
