<svg width="32" height="32" viewBox="0 0 32 32" fill="none" xmlns="http://www.w3.org/2000/svg">
<path d="M8.26562 9.79297C8.26562 8.96454 8.9372 8.29297 9.76562 8.29297H22.2344C23.0628 8.29297 23.7344 8.96454 23.7344 9.79297V11.6428C23.7344 12.057 23.3986 12.3928 22.9844 12.3928C22.5702 12.3928 22.2344 12.057 22.2344 11.6428V10.293C22.2344 10.0168 22.0105 9.79297 21.7344 9.79297L16.75 9.79297V21.7315C16.75 22.0076 16.9739 22.2315 17.25 22.2315H19.1252C19.5394 22.2315 19.8752 22.5673 19.8752 22.9815C19.8752 23.3957 19.5394 23.7315 19.1252 23.7315H12.8748C12.4606 23.7315 12.1248 23.3957 12.1248 22.9815C12.1248 22.5673 12.4606 22.2315 12.8748 22.2315H14.75C15.0261 22.2315 15.25 22.0076 15.25 21.7315V9.79297L10.2656 9.79297C9.98948 9.79297 9.76562 10.0168 9.76562 10.293V11.6705C9.76562 12.0847 9.42984 12.4205 9.01562 12.4205C8.60141 12.4205 8.26562 12.0847 8.26562 11.6705V9.79297Z" fill="#0E1318" fill-opacity="0.7"/>
</svg>
