<svg width="32" height="32" viewBox="0 0 32 32" fill="none" xmlns="http://www.w3.org/2000/svg">
<path d="M15.2422 6.98438C12.5067 6.98438 10.2009 9.05997 9.92552 11.7728C9.91799 11.8469 9.86558 11.9118 9.80296 11.935C7.62446 12.7442 6.07031 14.842 6.07031 17.3047C6.07031 20.4674 8.63418 23.0312 11.7969 23.0312C14.9596 23.0312 17.5234 20.4674 17.5234 17.3047V16.8185L19.3056 18.6006C19.5985 18.8935 20.0734 18.8935 20.3663 18.6006C20.6592 18.3077 20.6592 17.8329 20.3663 17.54L17.3038 14.4775C17.0109 14.1846 16.536 14.1846 16.2431 14.4775L13.1806 17.54C12.8877 17.8329 12.8877 18.3077 13.1806 18.6006C13.4735 18.8935 13.9484 18.8935 14.2413 18.6006L16.0234 16.8185V17.3047C16.0234 19.639 14.1311 21.5312 11.7969 21.5312C9.46261 21.5312 7.57031 19.639 7.57031 17.3047C7.57031 15.4891 8.71541 13.9391 10.3253 13.3411C10.9311 13.1161 11.3533 12.5597 11.4178 11.9243C11.6151 9.98174 13.272 8.48438 15.2422 8.48438C17.1353 8.48438 18.7109 9.85698 19.0278 11.6588C19.1621 12.4225 19.8078 13.0248 20.5908 13.0895C22.7362 13.2669 24.4453 15.1045 24.4453 17.3047C24.4453 19.639 22.553 21.5312 20.2188 21.5312H18.3047C17.8905 21.5312 17.5547 21.867 17.5547 22.2812C17.5547 22.6955 17.8905 23.0312 18.3047 23.0312H20.2188C23.3814 23.0312 25.9453 20.4674 25.9453 17.3047C25.9453 14.3264 23.6401 11.8365 20.7144 11.5946C20.6211 11.5869 20.5231 11.5013 20.5051 11.399C20.0645 8.89363 17.8773 6.98438 15.2422 6.98438Z" fill="#0E1318" fill-opacity="0.7"/>
</svg>
