<svg width="24" height="24" viewBox="0 0 24 24" fill="none" xmlns="http://www.w3.org/2000/svg">
<path d="M8.75 10.5C9.21413 10.5 9.65925 10.3156 9.98744 9.98744C10.3156 9.65925 10.5 9.21413 10.5 8.75C10.5 8.28587 10.3156 7.84075 9.98744 7.51256C9.65925 7.18437 9.21413 7 8.75 7C8.28587 7 7.84075 7.18437 7.51256 7.51256C7.18437 7.84075 7 8.28587 7 8.75C7 9.21413 7.18437 9.65925 7.51256 9.98744C7.84075 10.3156 8.28587 10.5 8.75 10.5Z" fill="white"/>
<path fill-rule="evenodd" clip-rule="evenodd" d="M17 3H7C5.93913 3 4.92172 3.42143 4.17157 4.17157C3.42143 4.92172 3 5.93913 3 7V17C3 18.0609 3.42143 19.0783 4.17157 19.8284C4.92172 20.5786 5.93913 21 7 21H17C18.0609 21 19.0783 20.5786 19.8284 19.8284C20.5786 19.0783 21 18.0609 21 17V7C21 5.93913 20.5786 4.92172 19.8284 4.17157C19.0783 3.42143 18.0609 3 17 3ZM17 4.5H15V9.682H19.5V7C19.5 6.33696 19.2366 5.70107 18.7678 5.23223C18.2989 4.76339 17.663 4.5 17 4.5ZM7 19.5H13.5V4.5H7C6.33696 4.5 5.70107 4.76339 5.23223 5.23223C4.76339 5.70107 4.5 6.33696 4.5 7V17C4.5 17.663 4.76339 18.2989 5.23223 18.7678C5.70107 19.2366 6.33696 19.5 7 19.5ZM17 19.5H15V11.182H19.5V17C19.5 17.663 19.2366 18.2989 18.7678 18.7678C18.2989 19.2366 17.663 19.5 17 19.5Z" fill="white"/>
</svg>
