<svg width="24" height="24" viewBox="0 0 24 24" fill="none" xmlns="http://www.w3.org/2000/svg">
<path fill-rule="evenodd" clip-rule="evenodd" d="M2 10.75C2 6.46979 5.46979 3 9.75 3H13.75C18.0302 3 21.5 6.46979 21.5 10.75C21.5 15.0093 18.0641 18.466 13.8127 18.4998C13.796 18.5069 13.7687 18.5195 13.7295 18.5406C13.6188 18.6005 13.4714 18.6967 13.2913 18.8293C12.9332 19.093 12.5087 19.4538 12.0927 19.8264C11.6794 20.1966 11.2876 20.5668 10.9962 20.8444C10.9448 20.8933 10.896 20.9399 10.8505 20.9833C10.7689 21.0612 10.6982 21.1287 10.6436 21.1802C10.6018 21.2197 10.5621 21.2567 10.5309 21.2844C10.5183 21.2957 10.4926 21.3184 10.4637 21.3406L10.4628 21.3413C10.4541 21.348 10.4077 21.3839 10.3446 21.4165L10.3435 21.4171C10.3291 21.4249 10.1929 21.4986 10.0067 21.5005C9.88923 21.5017 9.66057 21.4736 9.46754 21.28C9.27635 21.0882 9.24851 20.8626 9.24851 20.75V18.484C5.20205 18.2256 2 14.8617 2 10.75ZM10.7485 19.0206C10.8599 18.9184 10.9749 18.8139 11.0918 18.7092C11.5196 18.3259 11.986 17.9278 12.4018 17.6215C12.6087 17.4692 12.819 17.3277 13.0162 17.2211C13.1823 17.1313 13.4545 17 13.75 17C17.2018 17 20 14.2018 20 10.75C20 7.29822 17.2018 4.5 13.75 4.5H9.75C6.29822 4.5 3.5 7.29822 3.5 10.75C3.5 14.2018 6.29827 17 9.75006 17H10.7485V19.0206Z" fill="white"/>
</svg>
