<svg width="24" height="24" viewBox="0 0 24 24" fill="none" xmlns="http://www.w3.org/2000/svg">
<path d="M4.5 11.745V18.995C4.5 19.275 4.72 19.495 5 19.495H19C19.1326 19.495 19.2598 19.4423 19.3536 19.3486C19.4473 19.2548 19.5 19.1276 19.5 18.995V11.745C19.5 11.5461 19.579 11.3553 19.7197 11.2147C19.8603 11.074 20.0511 10.995 20.25 10.995C20.4489 10.995 20.6397 11.074 20.7803 11.2147C20.921 11.3553 21 11.5461 21 11.745V18.995C21 19.5254 20.7893 20.0341 20.4142 20.4092C20.0391 20.7843 19.5304 20.995 19 20.995H5C4.46957 20.995 3.96086 20.7843 3.58579 20.4092C3.21071 20.0341 3 19.5254 3 18.995V11.745C3 11.5461 3.07902 11.3553 3.21967 11.2147C3.36032 11.074 3.55109 10.995 3.75 10.995C3.94891 10.995 4.13968 11.074 4.28033 11.2147C4.42098 11.3553 4.5 11.5461 4.5 11.745ZM12.82 4.545V14.245C12.82 14.4439 12.741 14.6347 12.6003 14.7753C12.4597 14.916 12.2689 14.995 12.07 14.995C11.8711 14.995 11.6803 14.916 11.5397 14.7753C11.399 14.6347 11.32 14.4439 11.32 14.245V4.545L8.28 7.775C8.13783 7.90748 7.94978 7.9796 7.75548 7.97618C7.56118 7.97275 7.37579 7.89403 7.23838 7.75662C7.10097 7.61921 7.02225 7.43382 7.01883 7.23952C7.0154 7.04522 7.08752 6.85717 7.22 6.715L11.54 2.225C11.84 1.925 12.31 1.925 12.6 2.225L16.78 6.725C16.8612 6.79159 16.9275 6.87449 16.9746 6.96833C17.0218 7.06218 17.0487 7.16487 17.0536 7.26977C17.0585 7.37466 17.0413 7.47942 17.0032 7.57726C16.9651 7.67511 16.9068 7.76385 16.8322 7.83775C16.7576 7.91166 16.6683 7.96907 16.5701 8.00627C16.4719 8.04347 16.367 8.05964 16.2621 8.05373C16.1573 8.04781 16.0549 8.01994 15.9615 7.97193C15.8681 7.92392 15.7858 7.85682 15.72 7.775L12.82 4.565V4.545Z" fill="#0E1318"/>
</svg>
