<svg width="24" height="24" viewBox="0 0 24 24" fill="none" xmlns="http://www.w3.org/2000/svg">
<path fill-rule="evenodd" clip-rule="evenodd" d="M2.06474 13.312C5.071 16.7707 8.38328 18.5 12.0016 18.5C15.6199 18.5 18.9322 16.7707 21.9384 13.3121C22.5925 12.5596 22.5925 11.4404 21.9384 10.688C18.9322 7.22932 15.6199 5.5 12.0016 5.5C8.38328 5.5 5.071 7.22932 2.06474 10.6879C1.41071 11.4404 1.41071 12.5596 2.06474 13.312ZM20.8063 12.328C18.0683 15.478 15.1532 17 12.0016 17C8.84997 17 5.93487 15.478 3.19685 12.328C3.03334 12.1399 3.03334 11.8601 3.19685 11.672C5.93487 8.52195 8.84998 7 12.0016 7C15.1532 7 18.0683 8.52195 20.8063 11.672C20.9698 11.8601 20.9698 12.1399 20.8063 12.328ZM12.0016 16C9.79245 16 8.00159 14.2091 8.00159 12C8.00159 9.79086 9.79245 8 12.0016 8C14.2107 8 16.0016 9.79086 16.0016 12C16.0016 14.2091 14.2107 16 12.0016 16ZM14.0016 10.5C14.0016 11.3284 13.33 12 12.5016 12C11.6732 12 11.0016 11.3284 11.0016 10.5C11.0016 9.67157 11.6732 9 12.5016 9C13.33 9 14.0016 9.67157 14.0016 10.5Z" fill="white"/>
</svg>
