<svg width="24" height="24" viewBox="0 0 24 24" fill="none" xmlns="http://www.w3.org/2000/svg">
<path fill-rule="evenodd" clip-rule="evenodd" d="M3 4C3 3.73478 3.10536 3.48043 3.29289 3.29289C3.48043 3.10536 3.73478 3 4 3H20C20.2652 3 20.5196 3.10536 20.7071 3.29289C20.8946 3.48043 21 3.73478 21 4V12.5C21 12.7652 20.8946 13.0196 20.7071 13.2071C20.5196 13.3946 20.2652 13.5 20 13.5H4C3.73478 13.5 3.48043 13.3946 3.29289 13.2071C3.10536 13.0196 3 12.7652 3 12.5V4ZM4.5 12V4.5H19.5V12H4.5ZM4 21C3.73478 21 3.48043 20.8946 3.29289 20.7071C3.10536 20.5196 3 20.2652 3 20V16C3 15.7348 3.10536 15.4804 3.29289 15.2929C3.48043 15.1054 3.73478 15 4 15H20C20.2652 15 20.5196 15.1054 20.7071 15.2929C20.8946 15.4804 21 15.7348 21 16V20C21 20.2652 20.8946 20.5196 20.7071 20.7071C20.5196 20.8946 20.2652 21 20 21H4ZM4.5 16.5H8.5V19.5H4.5V16.5ZM15.5 19.5H19.5V16.5H15.5V19.5ZM14 16.5V19.5H10V16.5H14Z" fill="#0E1318"/>
</svg>
