<svg width="24" height="24" viewBox="0 0 24 24" fill="none" xmlns="http://www.w3.org/2000/svg">
<path fill-rule="evenodd" clip-rule="evenodd" d="M4 5H14.5C15.6046 5 16.5 5.89543 16.5 7H18C20.2091 7 22 8.79086 22 11V12V13.5V16C22 17.1046 21.1046 18 20 18C20 19.6569 18.6569 21 17 21C15.3431 21 14 19.6569 14 18H9C9 19.6569 7.65685 21 6 21C4.34315 21 3 19.6569 3 18C3 17.912 3.00379 17.8249 3.01121 17.7389C2.40723 17.3947 2 16.7449 2 16V7C2 5.89543 2.89543 5 4 5ZM20.5 12V11C20.5 9.61929 19.3807 8.5 18 8.5H16.5V12H20.5ZM16.5 13.5H20.5V16C20.5 16.2761 20.2761 16.5 20 16.5H19.5987C19.0799 15.6033 18.1104 15 17 15C16.8296 15 16.6626 15.0142 16.5 15.0415V13.5ZM15 7V15.7639C14.7637 15.9754 14.5611 16.2238 14.4013 16.5H8.59865C8.07994 15.6033 7.11042 15 6 15C4.99756 15 4.10995 15.4917 3.56518 16.247C3.52369 16.1741 3.5 16.0898 3.5 16V7C3.5 6.72386 3.72386 6.5 4 6.5H14.5C14.7761 6.5 15 6.72386 15 7ZM7.5 18C7.5 18.8284 6.82843 19.5 6 19.5C5.17157 19.5 4.5 18.8284 4.5 18C4.5 17.1716 5.17157 16.5 6 16.5C6.82843 16.5 7.5 17.1716 7.5 18ZM17 19.5C17.8284 19.5 18.5 18.8284 18.5 18C18.5 17.1716 17.8284 16.5 17 16.5C16.1716 16.5 15.5 17.1716 15.5 18C15.5 18.8284 16.1716 19.5 17 19.5Z" fill="white"/>
</svg>
