<svg width="24" height="24" viewBox="0 0 24 24" fill="none" xmlns="http://www.w3.org/2000/svg">
<path fill-rule="evenodd" clip-rule="evenodd" d="M20 4H19H5H4C2.89543 4 2 5.02335 2 6.28571V17.7143C2 18.9767 2.89543 20 4 20H20C21.1046 20 22 18.9767 22 17.7143V6.28571C22 5.02335 21.1046 4 20 4ZM20.5 7H3.5V17.7143C3.5 18.1895 3.77172 18.5 4 18.5H20C20.2283 18.5 20.5 18.1895 20.5 17.7143V7ZM8.5 8H11.5C13.433 8 15 9.567 15 11.5C15 13.0855 13.9457 14.4248 12.5 14.8551V13.3715C13.1564 13.0058 13.6005 12.3048 13.6005 11.5C13.6005 10.3177 12.642 9.35919 11.4596 9.35919H8.54035C7.35801 9.35919 6.39954 10.3177 6.39954 11.5C6.39954 12.4957 7.07926 13.3326 8 13.572V14.9646C6.30385 14.7219 5 13.2632 5 11.5C5 9.567 6.567 8 8.5 8ZM11.5 10.1095C10.0543 10.5398 9 11.879 9 13.4646C9 15.3976 10.567 16.9646 12.5 16.9646H15.5C17.433 16.9646 19 15.3976 19 13.4646C19 11.7013 17.6961 10.2426 16 10V11.3651C16.9367 11.6007 17.6302 12.4486 17.6302 13.4584C17.6302 14.6505 16.6638 15.6169 15.4718 15.6169H12.5284C11.3364 15.6169 10.37 14.6505 10.37 13.4584C10.37 12.6387 10.8269 11.9257 11.5 11.5603V10.1095Z" fill="white"/>
</svg>
